<mxfile host="app.diagrams.net" agent="Mozilla/5.0 (Macintosh; Intel Mac OS X 10_15_7) AppleWebKit/537.36 (KHTML, like Gecko) Chrome/134.0.0.0 Safari/537.36 Edg/134.0.0.0" version="26.1.1">
  <diagram name="第 1 页" id="gzhv_t4R0epDjTg4EIp7">
    <mxGraphModel dx="1426" dy="708" grid="1" gridSize="10" guides="1" tooltips="1" connect="1" arrows="1" fold="1" page="1" pageScale="1" pageWidth="827" pageHeight="1169" math="0" shadow="0">
      <root>
        <mxCell id="0" />
        <mxCell id="1" parent="0" />
        <mxCell id="YjX4FutzEUDwgeiD3PkE-19" style="edgeStyle=orthogonalEdgeStyle;rounded=0;orthogonalLoop=1;jettySize=auto;html=1;entryX=0.5;entryY=1;entryDx=0;entryDy=0;" edge="1" parent="1" source="YjX4FutzEUDwgeiD3PkE-11" target="YjX4FutzEUDwgeiD3PkE-3">
          <mxGeometry relative="1" as="geometry">
            <Array as="points">
              <mxPoint x="740" y="460" />
              <mxPoint x="190" y="460" />
            </Array>
          </mxGeometry>
        </mxCell>
        <mxCell id="YjX4FutzEUDwgeiD3PkE-20" value="写入" style="edgeLabel;html=1;align=center;verticalAlign=middle;resizable=0;points=[];" vertex="1" connectable="0" parent="YjX4FutzEUDwgeiD3PkE-19">
          <mxGeometry x="-0.087" y="4" relative="1" as="geometry">
            <mxPoint as="offset" />
          </mxGeometry>
        </mxCell>
        <mxCell id="YjX4FutzEUDwgeiD3PkE-7" style="edgeStyle=orthogonalEdgeStyle;rounded=0;orthogonalLoop=1;jettySize=auto;html=1;" edge="1" parent="1" target="YjX4FutzEUDwgeiD3PkE-3">
          <mxGeometry relative="1" as="geometry">
            <mxPoint x="190" y="210" as="sourcePoint" />
          </mxGeometry>
        </mxCell>
        <mxCell id="YjX4FutzEUDwgeiD3PkE-8" style="edgeStyle=orthogonalEdgeStyle;rounded=0;orthogonalLoop=1;jettySize=auto;html=1;entryX=0;entryY=0.5;entryDx=0;entryDy=0;" edge="1" parent="1" source="YjX4FutzEUDwgeiD3PkE-3" target="YjX4FutzEUDwgeiD3PkE-4">
          <mxGeometry relative="1" as="geometry" />
        </mxCell>
        <mxCell id="YjX4FutzEUDwgeiD3PkE-3" value="读取本地缓存" style="rounded=1;whiteSpace=wrap;html=1;fillColor=#dae8fc;strokeColor=#6c8ebf;" vertex="1" parent="1">
          <mxGeometry x="130" y="280" width="120" height="60" as="geometry" />
        </mxCell>
        <mxCell id="YjX4FutzEUDwgeiD3PkE-9" style="edgeStyle=orthogonalEdgeStyle;rounded=0;orthogonalLoop=1;jettySize=auto;html=1;entryX=0;entryY=0.5;entryDx=0;entryDy=0;" edge="1" parent="1" source="YjX4FutzEUDwgeiD3PkE-4" target="YjX4FutzEUDwgeiD3PkE-5">
          <mxGeometry relative="1" as="geometry" />
        </mxCell>
        <mxCell id="YjX4FutzEUDwgeiD3PkE-14" style="edgeStyle=orthogonalEdgeStyle;rounded=0;orthogonalLoop=1;jettySize=auto;html=1;entryX=0.5;entryY=0;entryDx=0;entryDy=0;" edge="1" parent="1" source="YjX4FutzEUDwgeiD3PkE-4" target="YjX4FutzEUDwgeiD3PkE-15">
          <mxGeometry relative="1" as="geometry">
            <mxPoint x="370" y="400" as="targetPoint" />
          </mxGeometry>
        </mxCell>
        <mxCell id="YjX4FutzEUDwgeiD3PkE-4" value="本地缓存&lt;div&gt;存在?&lt;/div&gt;" style="rhombus;whiteSpace=wrap;html=1;fillColor=#fff2cc;strokeColor=#d6b656;" vertex="1" parent="1">
          <mxGeometry x="320" y="280" width="110" height="60" as="geometry" />
        </mxCell>
        <mxCell id="YjX4FutzEUDwgeiD3PkE-10" style="edgeStyle=orthogonalEdgeStyle;rounded=0;orthogonalLoop=1;jettySize=auto;html=1;" edge="1" parent="1" source="YjX4FutzEUDwgeiD3PkE-5" target="YjX4FutzEUDwgeiD3PkE-6">
          <mxGeometry relative="1" as="geometry" />
        </mxCell>
        <mxCell id="YjX4FutzEUDwgeiD3PkE-5" value="读取远程缓存" style="rounded=1;whiteSpace=wrap;html=1;fillColor=#dae8fc;strokeColor=#6c8ebf;" vertex="1" parent="1">
          <mxGeometry x="500" y="280" width="120" height="60" as="geometry" />
        </mxCell>
        <mxCell id="YjX4FutzEUDwgeiD3PkE-12" style="edgeStyle=orthogonalEdgeStyle;rounded=0;orthogonalLoop=1;jettySize=auto;html=1;entryX=0.5;entryY=0;entryDx=0;entryDy=0;" edge="1" parent="1" source="YjX4FutzEUDwgeiD3PkE-6" target="YjX4FutzEUDwgeiD3PkE-11">
          <mxGeometry relative="1" as="geometry" />
        </mxCell>
        <mxCell id="YjX4FutzEUDwgeiD3PkE-13" value="存在" style="edgeLabel;html=1;align=center;verticalAlign=middle;resizable=0;points=[];" vertex="1" connectable="0" parent="YjX4FutzEUDwgeiD3PkE-12">
          <mxGeometry x="-0.1111" y="3" relative="1" as="geometry">
            <mxPoint x="3" y="-2" as="offset" />
          </mxGeometry>
        </mxCell>
        <mxCell id="YjX4FutzEUDwgeiD3PkE-6" value="&amp;nbsp;远程缓存&lt;br&gt;存在?" style="rhombus;whiteSpace=wrap;html=1;fillColor=#fff2cc;strokeColor=#d6b656;" vertex="1" parent="1">
          <mxGeometry x="680" y="280" width="120" height="60" as="geometry" />
        </mxCell>
        <mxCell id="YjX4FutzEUDwgeiD3PkE-17" style="edgeStyle=orthogonalEdgeStyle;rounded=0;orthogonalLoop=1;jettySize=auto;html=1;entryX=0.5;entryY=0;entryDx=0;entryDy=0;" edge="1" parent="1" source="YjX4FutzEUDwgeiD3PkE-11" target="YjX4FutzEUDwgeiD3PkE-18">
          <mxGeometry relative="1" as="geometry">
            <mxPoint x="740" y="490" as="targetPoint" />
          </mxGeometry>
        </mxCell>
        <mxCell id="YjX4FutzEUDwgeiD3PkE-11" value="写入本地缓存" style="rounded=1;whiteSpace=wrap;html=1;fillColor=#dae8fc;strokeColor=#6c8ebf;" vertex="1" parent="1">
          <mxGeometry x="685" y="390" width="110" height="50" as="geometry" />
        </mxCell>
        <mxCell id="YjX4FutzEUDwgeiD3PkE-15" value="&amp;nbsp;返回结果" style="ellipse;whiteSpace=wrap;html=1;fillColor=#d5e8d4;strokeColor=#82b366;" vertex="1" parent="1">
          <mxGeometry x="325" y="370" width="100" height="50" as="geometry" />
        </mxCell>
        <mxCell id="YjX4FutzEUDwgeiD3PkE-18" value="返回结果" style="ellipse;whiteSpace=wrap;html=1;fillColor=#d5e8d4;strokeColor=#82b366;" vertex="1" parent="1">
          <mxGeometry x="695" y="480" width="90" height="50" as="geometry" />
        </mxCell>
        <mxCell id="YjX4FutzEUDwgeiD3PkE-22" value="" style="shape=actor;whiteSpace=wrap;html=1;fillColor=#dae8fc;strokeColor=#6c8ebf;" vertex="1" parent="1">
          <mxGeometry x="190" y="110" width="40" height="60" as="geometry" />
        </mxCell>
        <mxCell id="YjX4FutzEUDwgeiD3PkE-23" value="" style="shape=actor;whiteSpace=wrap;html=1;fillColor=#dae8fc;strokeColor=#6c8ebf;" vertex="1" parent="1">
          <mxGeometry x="150" y="120" width="40" height="60" as="geometry" />
        </mxCell>
        <mxCell id="YjX4FutzEUDwgeiD3PkE-21" value="" style="shape=actor;whiteSpace=wrap;html=1;fillColor=#dae8fc;strokeColor=#6c8ebf;" vertex="1" parent="1">
          <mxGeometry x="170" y="130" width="40" height="60" as="geometry" />
        </mxCell>
        <mxCell id="YjX4FutzEUDwgeiD3PkE-26" value="请求" style="text;html=1;align=center;verticalAlign=middle;whiteSpace=wrap;rounded=0;" vertex="1" parent="1">
          <mxGeometry x="160" y="80" width="60" height="30" as="geometry" />
        </mxCell>
      </root>
    </mxGraphModel>
  </diagram>
</mxfile>
